<?xml version="1.0" encoding="utf-8"?>
<svg version="1.1" xmlns:xlink="http://www.w3.org/1999/xlink" width="24px" height="21px" xmlns="http://www.w3.org/2000/svg">
  <g transform="matrix(1 0 0 1 -222 -381 )">
    <path d="M 14.71875 12.87890625  C 15.9831730769231 11.7725360576923  16.6153846153846 10.4411057692308  16.6153846153846 8.88461538461539  C 16.6153846153846 7.328125  15.9831730769231 5.99669471153846  14.71875 4.89032451923077  C 13.4543269230769 3.78395432692308  11.9326923076923 3.23076923076923  10.1538461538462 3.23076923076923  C 8.375 3.23076923076923  6.85336538461539 3.78395432692308  5.58894230769231 4.89032451923077  C 4.32451923076923 5.99669471153846  3.69230769230769 7.328125  3.69230769230769 8.88461538461539  C 3.69230769230769 10.4411057692308  4.32451923076923 11.7725360576923  5.58894230769231 12.87890625  C 6.85336538461539 13.9852764423077  8.375 14.5384615384615  10.1538461538462 14.5384615384615  C 11.9326923076923 14.5384615384615  13.4543269230769 13.9852764423077  14.71875 12.87890625  Z M 23.4663461538462 18.2487980769231  C 23.8221153846154 18.5600961538462  24 18.9387019230769  24 19.3846153846154  C 24 19.8221153846154  23.8173076923077 20.2007211538462  23.4519230769231 20.5204326923077  C 23.0865384615385 20.8401442307692  22.6538461538462 21  22.1538461538462 21  C 21.6346153846154 21  21.2019230769231 20.8401442307692  20.8557692307692 20.5204326923077  L 15.9086538461538 16.2043269230769  C 14.1875 17.2475961538462  12.2692307692308 17.7692307692308  10.1538461538462 17.7692307692308  C 8.77884615384616 17.7692307692308  7.46394230769231 17.5357572115385  6.20913461538462 17.0688100961538  C 4.95432692307692 16.6018629807692  3.87259615384615 15.9708533653846  2.96394230769231 15.17578125  C 2.05528846153846 14.3807091346154  1.33413461538462 13.4341947115385  0.800480769230769 12.3362379807692  C 0.266826923076923 11.23828125  0 10.0877403846154  0 8.88461538461539  C 0 7.68149038461538  0.266826923076923 6.53094951923077  0.800480769230769 5.43299278846154  C 1.33413461538462 4.33503605769231  2.05528846153846 3.38852163461539  2.96394230769231 2.59344951923077  C 3.87259615384615 1.79837740384615  4.95432692307692 1.16736778846154  6.20913461538462 0.700420673076924  C 7.46394230769231 0.233473557692307  8.77884615384616 0  10.1538461538462 0  C 11.5288461538462 0  12.84375 0.233473557692307  14.0985576923077 0.700420673076924  C 15.3533653846154 1.16736778846154  16.4350961538462 1.79837740384615  17.34375 2.59344951923077  C 18.2524038461538 3.38852163461539  18.9735576923077 4.33503605769231  19.5072115384615 5.43299278846154  C 20.0408653846154 6.53094951923077  20.3076923076923 7.68149038461538  20.3076923076923 8.88461538461539  C 20.3076923076923 10.7355769230769  19.7115384615385 12.4140625  18.5192307692308 13.9200721153846  L 23.4663461538462 18.2487980769231  Z " fill-rule="nonzero" fill="#000000" stroke="none" transform="matrix(1 0 0 1 222 381 )" />
  </g>
</svg>