<?xml version="1.0" encoding="utf-8"?>
<svg version="1.1" xmlns:xlink="http://www.w3.org/1999/xlink" width="16px" height="16px" viewBox="159 93.5  16 16" xmlns="http://www.w3.org/2000/svg">
  <path d="M 167 93.5  C 171.48 93.5  175 97.02  175 101.5  C 175 105.98  171.48 109.5  167 109.5  C 162.52 109.5  159 105.98  159 101.5  C 159 97.02  162.52 93.5  167 93.5  Z " fill-rule="nonzero" fill="#ffffff" stroke="none" />
  <path d="M 167 94  C 171.2 94  174.5 97.3  174.5 101.5  C 174.5 105.7  171.2 109  167 109  C 162.8 109  159.5 105.7  159.5 101.5  C 159.5 97.3  162.8 94  167 94  Z " stroke-width="1" stroke="#797979" fill="none" />
  <path d="M 167 105.5  C 164.76 105.5  163 103.74  163 101.5  C 163 99.26  164.76 97.5  167 97.5  C 169.24 97.5  171 99.26  171 101.5  C 171 103.74  169.24 105.5  167 105.5  " fill-rule="nonzero" fill="#797979" stroke="none" />
</svg>