<?xml version="1.0" encoding="utf-8"?>
<svg version="1.1" xmlns:xlink="http://www.w3.org/1999/xlink" width="16px" height="16px" viewBox="402 93.5  16 16" xmlns="http://www.w3.org/2000/svg">
  <path d="M 410 93.5  C 414.48 93.5  418 97.02  418 101.5  C 418 105.98  414.48 109.5  410 109.5  C 405.52 109.5  402 105.98  402 101.5  C 402 97.02  405.52 93.5  410 93.5  Z " fill-rule="nonzero" fill="#f0f0f0" stroke="none" />
  <path d="M 410 94  C 414.2 94  417.5 97.3  417.5 101.5  C 417.5 105.7  414.2 109  410 109  C 405.8 109  402.5 105.7  402.5 101.5  C 402.5 97.3  405.8 94  410 94  Z " stroke-width="1" stroke="#797979" fill="none" />
  <path d="M 410 105.5  C 407.76 105.5  406 103.74  406 101.5  C 406 99.26  407.76 97.5  410 97.5  C 412.24 97.5  414 99.26  414 101.5  C 414 103.74  412.24 105.5  410 105.5  " fill-rule="nonzero" fill="#797979" stroke="none" />
</svg>