<?xml version="1.0" encoding="utf-8"?>
<svg version="1.1" xmlns:xlink="http://www.w3.org/1999/xlink" width="16px" height="16px" viewBox="646 93.5  16 16" xmlns="http://www.w3.org/2000/svg">
  <path d="M 654 93.5  C 658.48 93.5  662 97.02  662 101.5  C 662 105.98  658.48 109.5  654 109.5  C 649.52 109.5  646 105.98  646 101.5  C 646 97.02  649.52 93.5  654 93.5  Z " fill-rule="nonzero" fill="#ffffff" stroke="none" />
  <path d="M 654 94  C 658.2 94  661.5 97.3  661.5 101.5  C 661.5 105.7  658.2 109  654 109  C 649.8 109  646.5 105.7  646.5 101.5  C 646.5 97.3  649.8 94  654 94  Z " stroke-width="1" stroke="#797979" fill="none" />
  <path d="M 654 105.5  C 651.76 105.5  650 103.74  650 101.5  C 650 99.26  651.76 97.5  654 97.5  C 656.24 97.5  658 99.26  658 101.5  C 658 103.74  656.24 105.5  654 105.5  " fill-rule="nonzero" fill="#797979" stroke="none" />
</svg>