<?xml version="1.0" encoding="utf-8"?>
<svg version="1.1" xmlns:xlink="http://www.w3.org/1999/xlink" width="16px" height="16px" viewBox="889 93.5  16 16" xmlns="http://www.w3.org/2000/svg">
  <path d="M 897 93.5  C 901.48 93.5  905 97.02  905 101.5  C 905 105.98  901.48 109.5  897 109.5  C 892.52 109.5  889 105.98  889 101.5  C 889 97.02  892.52 93.5  897 93.5  Z " fill-rule="nonzero" fill="#ffffff" stroke="none" />
  <path d="M 897 94  C 901.2 94  904.5 97.3  904.5 101.5  C 904.5 105.7  901.2 109  897 109  C 892.8 109  889.5 105.7  889.5 101.5  C 889.5 97.3  892.8 94  897 94  Z " stroke-width="1" stroke="#797979" fill="none" />
  <path d="M 897 105.5  C 894.76 105.5  893 103.74  893 101.5  C 893 99.26  894.76 97.5  897 97.5  C 899.24 97.5  901 99.26  901 101.5  C 901 103.74  899.24 105.5  897 105.5  " fill-rule="nonzero" fill="#797979" stroke="none" />
</svg>