<?xml version="1.0" encoding="utf-8"?>
<svg version="1.1" xmlns:xlink="http://www.w3.org/1999/xlink" width="260px" height="21px" xmlns="http://www.w3.org/2000/svg">
  <defs>
    <mask fill="white" id="clip6">
      <path d="M 0 18.1363636363636  L 0 2.86363636363637  C 0 1.25999999999999  1.83529411764706 0  4.17112299465241 0  L 148.813559322036 0  L 175.727866904338 0  L 255.828877005348 0  C 258.164705882353 0  260 1.25999999999999  260 2.86363636363637  L 260 18.1363636363636  C 260 19.74  258.164705882353 21  255.828877005348 21  L 148.813559322036 21  L 108.135593220341 21  L 4.17112299465241 21  C 1.83529411764706 21  0 19.74  0 18.1363636363636  Z " fill-rule="evenodd" />
    </mask>
  </defs>
  <g transform="matrix(1 0 0 1 0 -454 )">
    <path d="M 0 18.1363636363636  L 0 2.86363636363637  C 0 1.25999999999999  1.83529411764706 0  4.17112299465241 0  L 148.813559322036 0  L 175.727866904338 0  L 255.828877005348 0  C 258.164705882353 0  260 1.25999999999999  260 2.86363636363637  L 260 18.1363636363636  C 260 19.74  258.164705882353 21  255.828877005348 21  L 148.813559322036 21  L 108.135593220341 21  L 4.17112299465241 21  C 1.83529411764706 21  0 19.74  0 18.1363636363636  Z " fill-rule="nonzero" fill="#ffffff" stroke="none" fill-opacity="0" transform="matrix(1 0 0 1 0 454 )" />
    <path d="M 0 18.1363636363636  L 0 2.86363636363637  C 0 1.25999999999999  1.83529411764706 0  4.17112299465241 0  L 148.813559322036 0  L 175.727866904338 0  L 255.828877005348 0  C 258.164705882353 0  260 1.25999999999999  260 2.86363636363637  L 260 18.1363636363636  C 260 19.74  258.164705882353 21  255.828877005348 21  L 148.813559322036 21  L 108.135593220341 21  L 4.17112299465241 21  C 1.83529411764706 21  0 19.74  0 18.1363636363636  Z " stroke-width="2" stroke="#797979" fill="none" transform="matrix(1 0 0 1 0 454 )" mask="url(#clip6)" />
  </g>
</svg>