<?xml version="1.0" encoding="utf-8"?>
<svg version="1.1" xmlns:xlink="http://www.w3.org/1999/xlink" width="28px" height="24px" xmlns="http://www.w3.org/2000/svg">
  <g transform="matrix(1 0 0 1 -221 -382 )">
    <path d="M 17.171875 14.71875  C 18.6470352564103 13.4543269230769  19.3846153846154 11.9326923076923  19.3846153846154 10.1538461538462  C 19.3846153846154 8.375  18.6470352564103 6.85336538461538  17.171875 5.58894230769231  C 15.6967147435897 4.32451923076923  13.9214743589744 3.69230769230769  11.8461538461538 3.69230769230769  C 9.77083333333333 3.69230769230769  7.99559294871795 4.32451923076923  6.52043269230769 5.58894230769231  C 5.04527243589744 6.85336538461538  4.30769230769231 8.375  4.30769230769231 10.1538461538462  C 4.30769230769231 11.9326923076923  5.04527243589744 13.4543269230769  6.52043269230769 14.71875  C 7.99559294871795 15.9831730769231  9.77083333333333 16.6153846153846  11.8461538461538 16.6153846153846  C 13.9214743589744 16.6153846153846  15.6967147435897 15.9831730769231  17.171875 14.71875  Z M 27.3774038461538 20.8557692307692  C 27.7924679487179 21.2115384615385  28 21.6442307692308  28 22.1538461538462  C 28 22.6538461538462  27.786858974359 23.0865384615385  27.3605769230769 23.4519230769231  C 26.9342948717949 23.8173076923077  26.4294871794872 24  25.8461538461538 24  C 25.2403846153846 24  24.7355769230769 23.8173076923077  24.3317307692308 23.4519230769231  L 18.5600961538462 18.5192307692308  C 16.5520833333333 19.7115384615385  14.3141025641026 20.3076923076923  11.8461538461538 20.3076923076923  C 10.2419871794872 20.3076923076923  8.70793269230769 20.0408653846154  7.24399038461538 19.5072115384615  C 5.78004807692308 18.9735576923077  4.51802884615385 18.2524038461538  3.45793269230769 17.34375  C 2.39783653846154 16.4350961538462  1.55649038461539 15.3533653846154  0.933894230769231 14.0985576923077  C 0.311298076923077 12.84375  0 11.5288461538462  0 10.1538461538462  C 0 8.77884615384615  0.311298076923077 7.46394230769231  0.933894230769231 6.20913461538462  C 1.55649038461539 4.95432692307692  2.39783653846154 3.87259615384616  3.45793269230769 2.96394230769231  C 4.51802884615385 2.05528846153846  5.78004807692308 1.33413461538461  7.24399038461538 0.80048076923077  C 8.70793269230769 0.266826923076922  10.2419871794872 0  11.8461538461538 0  C 13.4503205128205 0  14.984375 0.266826923076922  16.4483173076923 0.80048076923077  C 17.9122596153846 1.33413461538461  19.1742788461538 2.05528846153846  20.234375 2.96394230769231  C 21.2944711538462 3.87259615384616  22.1358173076923 4.95432692307692  22.7584134615385 6.20913461538462  C 23.3810096153846 7.46394230769231  23.6923076923077 8.77884615384615  23.6923076923077 10.1538461538462  C 23.6923076923077 12.2692307692308  22.9967948717949 14.1875  21.6057692307692 15.9086538461538  L 27.3774038461538 20.8557692307692  Z " fill-rule="nonzero" fill="#000000" stroke="none" transform="matrix(1 0 0 1 221 382 )" />
  </g>
</svg>