<?xml version="1.0" encoding="utf-8"?>
<svg version="1.1" xmlns:xlink="http://www.w3.org/1999/xlink" width="21px" height="23px" xmlns="http://www.w3.org/2000/svg">
  <g transform="matrix(1 0 0 1 -221 -376 )">
    <path d="M 12.87890625 14.10546875  C 13.9852764423077 12.8937299679487  14.5384615384615 11.4354967948718  14.5384615384615 9.73076923076923  C 14.5384615384615 8.02604166666666  13.9852764423077 6.56780849358974  12.87890625 5.35606971153846  C 11.7725360576923 4.14433092948718  10.4411057692308 3.53846153846154  8.88461538461539 3.53846153846154  C 7.328125 3.53846153846154  5.99669471153846 4.14433092948718  4.89032451923077 5.35606971153846  C 3.78395432692308 6.56780849358974  3.23076923076923 8.02604166666666  3.23076923076923 9.73076923076923  C 3.23076923076923 11.4354967948718  3.78395432692308 12.8937299679487  4.89032451923077 14.10546875  C 5.99669471153846 15.3172075320513  7.328125 15.9230769230769  8.88461538461539 15.9230769230769  C 10.4411057692308 15.9230769230769  11.7725360576923 15.3172075320513  12.87890625 14.10546875  Z M 20.5330528846154 19.9867788461538  C 20.8443509615385 20.3277243589744  21 20.7423878205128  21 21.2307692307692  C 21 21.7099358974359  20.8401442307692 22.1245993589744  20.5204326923077 22.4747596153846  C 20.2007211538462 22.8249198717949  19.8221153846154 23  19.3846153846154 23  C 18.9302884615385 23  18.5516826923077 22.8249198717949  18.2487980769231 22.4747596153846  L 13.9200721153846 17.7475961538462  C 12.4140625 18.8902243589744  10.7355769230769 19.4615384615385  8.88461538461539 19.4615384615385  C 7.68149038461539 19.4615384615385  6.53094951923077 19.2058293269231  5.43299278846154 18.6944110576923  C 4.33503605769231 18.1829927884615  3.38852163461538 17.4918870192308  2.59344951923077 16.62109375  C 1.79837740384615 15.7503004807692  1.16736778846154 14.7136418269231  0.700420673076923 13.5111177884615  C 0.233473557692308 12.30859375  0 11.0484775641026  0 9.73076923076923  C 0 8.41306089743589  0.233473557692308 7.15294471153846  0.700420673076923 5.95042067307692  C 1.16736778846154 4.74789663461538  1.79837740384615 3.71123798076923  2.59344951923077 2.84044471153846  C 3.38852163461538 1.96965144230769  4.33503605769231 1.27854567307692  5.43299278846154 0.767127403846155  C 6.53094951923077 0.255709134615384  7.68149038461539 0  8.88461538461539 0  C 10.0877403846154 0  11.23828125 0.255709134615384  12.3362379807692 0.767127403846155  C 13.4341947115385 1.27854567307692  14.3807091346154 1.96965144230769  15.17578125 2.84044471153846  C 15.9708533653846 3.71123798076923  16.6018629807692 4.74789663461538  17.0688100961538 5.95042067307692  C 17.5357572115385 7.15294471153846  17.7692307692308 8.41306089743589  17.7692307692308 9.73076923076923  C 17.7692307692308 11.7580128205128  17.2475961538462 13.5963541666667  16.2043269230769 15.2457932692308  L 20.5330528846154 19.9867788461538  Z " fill-rule="nonzero" fill="#000000" stroke="none" transform="matrix(1 0 0 1 221 376 )" />
  </g>
</svg>