<?xml version="1.0" encoding="utf-8"?>
<svg version="1.1" xmlns:xlink="http://www.w3.org/1999/xlink" width="20px" height="21px" xmlns="http://www.w3.org/2000/svg">
  <g transform="matrix(1 0 0 1 -384 -391 )">
    <path d="M 394 391  C 399.6 391  404 395.62  404 401.5  C 404 407.38  399.6 412  394 412  C 388.4 412  384 407.38  384 401.5  C 384 395.62  388.4 391  394 391  Z " fill-rule="nonzero" fill="#81d3f8" stroke="none" />
    <path d="M 394 391.5  C 399.32 391.5  403.5 395.9  403.5 401.5  C 403.5 407.1  399.32 411.5  394 411.5  C 388.68 411.5  384.5 407.1  384.5 401.5  C 384.5 395.9  388.68 391.5  394 391.5  Z " stroke-width="1" stroke="#797979" fill="none" />
  </g>
</svg>