<?xml version="1.0" encoding="utf-8"?>
<svg version="1.1" xmlns:xlink="http://www.w3.org/1999/xlink" width="21px" height="22px" xmlns="http://www.w3.org/2000/svg">
  <g transform="matrix(1 0 0 1 -404 -393 )">
    <path d="M 414.5 393  C 420.38 393  425 397.84  425 404  C 425 410.16  420.38 415  414.5 415  C 408.62 415  404 410.16  404 404  C 404 397.84  408.62 393  414.5 393  Z " fill-rule="nonzero" fill="#81d3f8" stroke="none" />
    <path d="M 414.5 393.5  C 420.1 393.5  424.5 398.12  424.5 404  C 424.5 409.88  420.1 414.5  414.5 414.5  C 408.9 414.5  404.5 409.88  404.5 404  C 404.5 398.12  408.9 393.5  414.5 393.5  Z " stroke-width="1" stroke="#797979" fill="none" />
  </g>
</svg>