<?xml version="1.0" encoding="utf-8"?>
<svg version="1.1" xmlns:xlink="http://www.w3.org/1999/xlink" width="23px" height="24px" xmlns="http://www.w3.org/2000/svg">
  <g transform="matrix(1 0 0 1 -226 -380 )">
    <path d="M 14.10546875 14.71875  C 15.3172075320513 13.4543269230769  15.9230769230769 11.9326923076923  15.9230769230769 10.1538461538462  C 15.9230769230769 8.375  15.3172075320513 6.85336538461538  14.10546875 5.58894230769231  C 12.8937299679487 4.32451923076923  11.4354967948718 3.69230769230769  9.73076923076923 3.69230769230769  C 8.02604166666667 3.69230769230769  6.56780849358974 4.32451923076923  5.35606971153846 5.58894230769231  C 4.14433092948718 6.85336538461538  3.53846153846154 8.375  3.53846153846154 10.1538461538462  C 3.53846153846154 11.9326923076923  4.14433092948718 13.4543269230769  5.35606971153846 14.71875  C 6.56780849358974 15.9831730769231  8.02604166666667 16.6153846153846  9.73076923076923 16.6153846153846  C 11.4354967948718 16.6153846153846  12.8937299679487 15.9831730769231  14.10546875 14.71875  Z M 22.4885817307692 20.8557692307692  C 22.8295272435897 21.2115384615385  23 21.6442307692308  23 22.1538461538462  C 23 22.6538461538462  22.8249198717949 23.0865384615385  22.4747596153846 23.4519230769231  C 22.1245993589744 23.8173076923077  21.7099358974359 24  21.2307692307692 24  C 20.7331730769231 24  20.3185096153846 23.8173076923077  19.9867788461538 23.4519230769231  L 15.2457932692308 18.5192307692308  C 13.5963541666667 19.7115384615385  11.7580128205128 20.3076923076923  9.73076923076923 20.3076923076923  C 8.4130608974359 20.3076923076923  7.15294471153846 20.0408653846154  5.95042067307692 19.5072115384615  C 4.74789663461539 18.9735576923077  3.71123798076923 18.2524038461538  2.84044471153846 17.34375  C 1.96965144230769 16.4350961538462  1.27854567307692 15.3533653846154  0.767127403846154 14.0985576923077  C 0.255709134615385 12.84375  0 11.5288461538462  0 10.1538461538462  C 0 8.77884615384615  0.255709134615385 7.46394230769231  0.767127403846154 6.20913461538462  C 1.27854567307692 4.95432692307692  1.96965144230769 3.87259615384616  2.84044471153846 2.96394230769231  C 3.71123798076923 2.05528846153846  4.74789663461539 1.33413461538461  5.95042067307692 0.80048076923077  C 7.15294471153846 0.266826923076922  8.4130608974359 0  9.73076923076923 0  C 11.0484775641026 0  12.30859375 0.266826923076922  13.5111177884615 0.80048076923077  C 14.7136418269231 1.33413461538461  15.7503004807692 2.05528846153846  16.62109375 2.96394230769231  C 17.4918870192308 3.87259615384616  18.1829927884615 4.95432692307692  18.6944110576923 6.20913461538462  C 19.2058293269231 7.46394230769231  19.4615384615385 8.77884615384615  19.4615384615385 10.1538461538462  C 19.4615384615385 12.2692307692308  18.8902243589744 14.1875  17.7475961538462 15.9086538461538  L 22.4885817307692 20.8557692307692  Z " fill-rule="nonzero" fill="#000000" stroke="none" transform="matrix(1 0 0 1 226 380 )" />
  </g>
</svg>